# xmcd
#
# Track frame offsets: 
#        150
#        15432
#        30339
#        44686
#        65085
#        82395
#        99947
#        119344
#        140735
#        160949
#        179933
#        194056
#
# Disc length: 2873 seconds
#
# Revision: 1
# Processed by: cddbd v1.5.2PL0 Copyright (c) Steve Scherf et al.
# Submitted via: ExactAudioCopy v1.0b4
#
DISCID=b30b370c
DTITLE=Curtis Salgado - The Beautiful Lowdown
DYEAR=2016
DGENRE=Blues
TTITLE0=Hard To Feel The Same About Love
TTITLE1=Low Down Dirty Shame
TTITLE2=I Know A Good Thing
TTITLE3=Walk A Mile In My Blues
TTITLE4=Healing Love
TTITLE5=Nothing In Particular (Little Bit Of Everything)
TTITLE6=Simple Enough
TTITLE7=I'm Not Made That Way
TTITLE8=Is There Something I Should Know
TTITLE9=My Girlfriend
TTITLE10=Ring Telephone Ring
TTITLE11=Hook Me Up
EXTD=YEAR: 2016
EXTT0=
EXTT1=
EXTT2=
EXTT3=
EXTT4=
EXTT5=
EXTT6=
EXTT7=
EXTT8=
EXTT9=
EXTT10=
EXTT11=
PLAYORDER=
